<?xml version="1.0" encoding="UTF-8"?>
<svg id="Layer_1" xmlns="http://www.w3.org/2000/svg" version="1.1" viewBox="0 0 272 280">
  <!-- Generator: Adobe Illustrator 29.0.1, SVG Export Plug-In . SVG Version: 2.1.0 Build 192)  -->
  <defs>
    <style>
      .st0 {
        fill: none;
      }

      .st1 {
        fill: #530d7c;
      }

      .st2 {
        fill: #1c1819;
      }

      .st3 {
        fill: #550575;
      }

      .st4 {
        fill: #5f0a81;
      }

      .st5 {
        fill: #9e9e9e;
      }
    </style>
  </defs>
  <polygon class="st5" points="237.4 103.6 214 103.6 136.4 45.8 59.6 103.6 34.6 103.6 123.9 36.5 135.9 27.5 148.3 36.8 237.4 103.6"/>
  <rect class="st5" x="121.9" y="73.9" width="13.2" height="12.5"/>
  <rect class="st5" x="138" y="74.2" width="13.2" height="12.5"/>
  <rect class="st5" x="121.9" y="90.4" width="13.2" height="12.5"/>
  <rect class="st5" x="138" y="90.7" width="13.2" height="12.5"/>
  <polygon class="st4" points="69.8 223.7 62.5 240.9 55.4 223.7 49.1 223.7 61.2 252.5 63.9 252.5 76.1 223.7 69.8 223.7"/>
  <path class="st4" d="M89.4,234.2c-1.3-.7-2.8-1.1-4.4-1.1-2.6,0-4.9,1-6.7,2.9-1.8,1.9-2.8,4.2-2.8,6.8s.9,4.9,2.8,6.8c1.8,1.9,4.1,2.9,6.8,2.9s3-.4,4.3-1.2v.6h5.2v-18.4h-5.2v.7h0ZM88.3,239.6c.9.9,1.3,1.9,1.3,3.2s-.4,2.4-1.3,3.3-1.9,1.3-3.1,1.3-2.2-.4-3.1-1.3c-.9-.9-1.3-2-1.3-3.2s.4-2.3,1.3-3.2c.8-.9,1.8-1.3,3.1-1.3s2.2.4,3.1,1.3h0Z"/>
  <rect class="st4" x="100.4" y="222.9" width="5.7" height="28.9"/>
  <path class="st4" d="M122.8,240.7c0,2.5-.1,3.4-.2,3.7-.1.5-.3.9-.7,1.4-.3.5-.8.8-1.2,1.1-.5.2-.9.4-1.4.4s-.9,0-1.2-.2c-.3-.1-.5-.3-.6-.5-.2-.3-.3-.6-.5-1,0-.2-.2-1-.2-3.2v-8.9h-5.2v9.4c0,2.2.2,3.8.7,5,.5,1.3,1.4,2.4,2.6,3.2,1.2.8,2.5,1.2,4,1.2s2.8-.4,4-1.1v.7h5.3v-18.5h-5.3v7.2h0Z"/>
  <polygon class="st4" points="157.7 222.9 148.3 241.9 138.9 222.9 136.1 222.9 132 251.9 137.8 251.9 139.8 237.3 147 251.9 149.7 251.9 156.8 237.4 158.8 251.9 164.7 251.9 160.5 222.9 157.7 222.9"/>
  <path class="st4" d="M180,234.2c-1.3-.7-2.8-1.1-4.4-1.1-2.6,0-4.9,1-6.7,2.9-1.9,1.9-2.8,4.2-2.8,6.8s.9,4.9,2.8,6.8c1.9,1.9,4.1,2.9,6.8,2.9s3-.4,4.3-1.2v.6h5.2v-18.4h-5.2v.7h0ZM175.7,247.4c-1.2,0-2.2-.4-3.1-1.3-.9-.9-1.3-2-1.3-3.2s.4-2.3,1.3-3.2c.9-.9,1.8-1.3,3.1-1.3s2.2.4,3.1,1.3c.9.9,1.3,1.9,1.3,3.2s-.4,2.4-1.3,3.3-1.9,1.3-3.1,1.3h0Z"/>
  <path class="st4" d="M198.3,226.2h-5.4v6.2h-2.9v5.1h2.9v10.5c0,1.4.4,2.5,1.1,3.2.8.8,1.8,1.2,3.2,1.2s1.3,0,2.3-.2l1.4-.2v-4.8h-2.6v-9.7h3.3v-5.1h-3.3v-6.2h0Z"/>
  <path class="st4" d="M213.1,247.4c-1.1,0-2-.4-2.8-1.2-.4-.4-.8-1-1-2.3h13.5v-1c-.1-3-1.1-5.4-2.9-7.1-1.8-1.8-4.1-2.7-6.7-2.7s-4.9,1-6.8,2.9c-1.8,1.9-2.7,4.2-2.7,6.8s.9,4.9,2.7,6.8c1.8,1.9,4.1,2.9,6.9,2.9s6.7-1.8,8.6-5.3l-4.5-2.5c-1,1.9-2.4,2.8-4.3,2.8h0ZM213.2,238.2c1,0,1.9.3,2.7.9.2.1.3.3.5.4h-6.2c.9-1.1,2.1-1.4,3-1.4h0Z"/>
  <path class="st2" d="M136.9,194.6s0,0,0,0"/>
  <line class="st0" x1="139.1" y1="179.9" x2="139.1" y2="179.9"/>
  <path class="st1" d="M103.6,164.2c-12.5,33.6-22.6,56-35.1,50.8-12.5-5.3-6.6-35.6-11.2-60.7-2.9-15.6-4-20.4-8.2-27.4-2.3-3-5-4.3-9.2-4.6-6.6,0,.7-7.2,9.2-2.6,8.6,4.6,19.8,18.5,20.4,70.6.4,34.7,18.2,4.4,30.3-30.8,0,0-4.9-10.5-3.6-24.3s4-24.4,8.6-24.4,5.9,9.2,2.6,22.4c-3.3,13.2-1.3,27,6.6,28.4,7.9,1.3,19.8-.7,32.3-21.8,5.4-9.2,7.4-15.9,7.9-20.5,0,0,6.6-4.6,6,0s-14.5,45.5-40.2,50.8c-6,1.2-11.6-1.7-16.3-5.9h0Z"/>
  <g>
    <circle class="st1" cx="80.3" cy="131.9" r="3.3"/>
    <circle class="st1" cx="115.9" cy="176.8" r="3.3"/>
    <circle class="st1" cx="125.2" cy="176.8" r="3.3"/>
    <circle class="st1" cx="171.2" cy="125.6" r="3.3"/>
    <circle class="st1" cx="181.3" cy="127.7" r="3.3"/>
    <circle class="st1" cx="177.4" cy="116.5" r="3.3"/>
    <circle class="st3" cx="206.4" cy="118.4" r="3.3"/>
    <circle class="st3" cx="213" cy="112.5" r="3.3"/>
  </g>
  <path class="st3" d="M173.3,158.3s-.7,5.5-3.4,11h0c-2.4,4.9-6.2,9.8-12.5,10.8-7,1.1-8.3-9.2-8.5-11.4,1.4-3.1,3.4-6.6,5.8-10-1,4.3-.5,12.2,3.1,13,1.7.3,7.6.6,15.5-13.3h0Z"/>
  <path class="st2" d="M148.9,168.6c0-.3,0-.4,0-.4"/>
  <path class="st2" d="M154.8,158.3c0,.1,0,.2,0,.3"/>
  <path class="st1" d="M233.5,125.1c0,.4,0,.8.1,1.1.2.8.3,1.6.3,2.4.3,7.9-1.6,23.9-8.1,38.3-8,18-13.7,27.4-13.7,34.9,0,5.8,4,7.2,6.9,7.2s6-1.1,6.2-1.2c-1.7,4.5-6,7.8-11.1,7.8h0c-3.9,0-7.4-2.5-8.4-6.3-.5-1.9-.8-3.9-.8-5.9,0-3.3.7-6.4,2-9.1,0,0,17.1-38.8,16.5-64.8,0-2.7-1.6-4.8-3.6-4.9-7.8-.7-30.8,47.3-39.3,55.9-1.4,1.5-2.9,2.8-4.9,2.8-7.3,0-6.4-9.8-5.7-14h0c2.6-5.5,3.4-11,3.4-11,3.3-10.6-1-13-4.7-11.4-5.8,2.4-10.4,6.9-13.9,11.7-2.5,3.4-4.4,6.9-5.8,10-2.2,4.8-3.2,8.4-3.2,8.4-1.8,6.9-4.9,12.9-8.8,17.6,0,0,0,0,0,0-1.7,2.1-3.2,3.9-5.6,5.4-2.6,1.6-5.6,2.5-8.7,2.5-5.9,0-8.6-2.3-8.6-4.3s2-3.6,5.9-3.6c8.1,0,15.3-5.9,19.2-14.6,1.2-2.7,4.9-13.5,5.9-15.7,4.8-10.5,13.4-20.3,24.8-24.9,0,0,.3-.1.8-.4,4.6-1.9,9.9.7,11,5.5,0,0,0,0,0,.1.3,1.2.3,2.4.1,3.6,0,0-1.9,14-1.9,16.9,0,1.8.3,2.5,1.6,3,4.9.7,21.7-30,32.5-45.8,2.6-3.8,6.6-6.3,10.1-6.3,5.3,0,9.2,3.9,9.5,9.1h0Z"/>
</svg>